<svg width="30" height="30" viewBox="0 0 30 30" fill="none" xmlns="http://www.w3.org/2000/svg">
<path d="M9.95624 7.7525C9.72393 7.71869 9.48704 7.76545 9.28499 7.885H9.26749C8.79874 8.16 8.37624 8.50625 8.01624 8.91375C7.71624 9.26 7.55374 9.61 7.51124 9.9475C7.48624 10.1475 7.50374 10.35 7.56249 10.5412L7.58499 10.5537C7.92249 11.545 8.36249 12.4988 8.89999 13.3963C9.59306 14.6569 10.4459 15.8227 11.4375 16.865L11.4675 16.9075L11.515 16.9425L11.5437 16.9763L11.5787 17.0062C12.6247 18.0008 13.7933 18.8577 15.0562 19.5563C16.5 20.3425 17.3762 20.7137 17.9025 20.8687V20.8763C18.0562 20.9238 18.1962 20.945 18.3375 20.945C18.7857 20.9119 19.2099 20.7297 19.5425 20.4275C19.9487 20.0675 20.2925 19.6438 20.56 19.1725V19.1638C20.8112 18.6888 20.7262 18.2413 20.3637 17.9375C19.6356 17.3013 18.8483 16.7362 18.0125 16.25C17.4525 15.9462 16.8837 16.13 16.6537 16.4375L16.1625 17.0575C15.91 17.365 15.4525 17.3225 15.4525 17.3225L15.44 17.33C12.0262 16.4588 11.115 13.0025 11.115 13.0025C11.115 13.0025 11.0725 12.5325 11.3887 12.2925L12.0037 11.7975C12.2987 11.5575 12.5037 10.99 12.1875 10.43C11.7045 9.59345 11.1405 8.80634 10.5037 8.08C10.3649 7.90906 10.1701 7.79263 9.95374 7.75125L9.95624 7.7525ZM15.725 6.25C15.5592 6.25 15.4003 6.31585 15.2831 6.43306C15.1658 6.55027 15.1 6.70924 15.1 6.875C15.1 7.04076 15.1658 7.19973 15.2831 7.31694C15.4003 7.43415 15.5592 7.5 15.725 7.5C17.305 7.5 18.6175 8.01625 19.6562 9.00625C20.19 9.5475 20.6062 10.1888 20.8787 10.8913C21.1525 11.595 21.2775 12.3463 21.245 13.0988C21.238 13.2645 21.2972 13.4262 21.4095 13.5484C21.5218 13.6705 21.678 13.743 21.8437 13.75C22.0095 13.757 22.1712 13.6978 22.2934 13.5855C22.4155 13.4732 22.488 13.317 22.495 13.1512C22.5338 12.2256 22.3801 11.302 22.0437 10.4387C21.7059 9.57142 21.1937 8.78265 20.5387 8.12125L20.5262 8.10875C19.2375 6.8775 17.6075 6.25 15.725 6.25Z" fill="#A7A7A7"/>
<path d="M15.6813 8.30496C15.5155 8.30496 15.3565 8.37081 15.2393 8.48802C15.1221 8.60523 15.0563 8.7642 15.0563 8.92996C15.0563 9.09572 15.1221 9.25469 15.2393 9.3719C15.3565 9.48911 15.5155 9.55496 15.6813 9.55496H15.7025C16.8425 9.63621 17.6725 10.0162 18.2538 10.64C18.85 11.2825 19.1588 12.0812 19.135 13.0687C19.1312 13.2345 19.1934 13.395 19.3079 13.5149C19.4224 13.6348 19.5799 13.7043 19.7456 13.7081C19.9114 13.7119 20.0719 13.6497 20.1918 13.5352C20.3117 13.4207 20.3812 13.2632 20.385 13.0975C20.415 11.8012 19.9975 10.6825 19.17 9.78996V9.78746C18.3238 8.87996 17.1625 8.39996 15.765 8.30621L15.7438 8.30371L15.6813 8.30496Z" fill="#A7A7A7"/>
<path d="M15.6575 10.3988C15.5738 10.3914 15.4896 10.4009 15.4097 10.4269C15.3298 10.4528 15.256 10.4945 15.1926 10.5496C15.1292 10.6047 15.0776 10.6719 15.0408 10.7474C15.004 10.8229 14.9828 10.905 14.9784 10.9888C14.974 11.0727 14.9866 11.1566 15.0154 11.2355C15.0441 11.3143 15.0885 11.3866 15.1458 11.448C15.2031 11.5094 15.2722 11.5585 15.3489 11.5926C15.4257 11.6267 15.5085 11.6449 15.5925 11.6463C16.115 11.6738 16.4487 11.8313 16.6587 12.0425C16.87 12.255 17.0275 12.5963 17.0562 13.13C17.0578 13.2139 17.0762 13.2966 17.1104 13.3732C17.1446 13.4498 17.1939 13.5187 17.2553 13.5759C17.3167 13.6331 17.389 13.6773 17.4678 13.7059C17.5467 13.7345 17.6305 13.747 17.7143 13.7425C17.798 13.7381 17.88 13.7168 17.9554 13.68C18.0308 13.6432 18.098 13.5916 18.153 13.5282C18.208 13.4649 18.2497 13.3911 18.2756 13.3113C18.3015 13.2315 18.3111 13.1473 18.3037 13.0638C18.2637 12.3138 18.0287 11.6513 17.5475 11.1638C17.0637 10.6763 16.405 10.4388 15.6575 10.3988Z" fill="#A7A7A7"/>
<path fill-rule="evenodd" clip-rule="evenodd" d="M8.83376 2.97995C12.8113 2.09083 16.9362 2.09083 20.9138 2.97995L21.3375 3.0737C22.5003 3.33364 23.5682 3.91086 24.4226 4.74123C25.277 5.5716 25.8845 6.6226 26.1775 7.77745C27.1871 11.7561 27.1871 15.9238 26.1775 19.9025C25.8845 21.0573 25.277 22.1083 24.4226 22.9387C23.5682 23.769 22.5003 24.3463 21.3375 24.6062L20.9125 24.6999C18.4213 25.2571 15.865 25.467 13.3163 25.3237L10 28.2912C9.87498 28.4031 9.7222 28.4795 9.55762 28.5122C9.39303 28.545 9.22267 28.5329 9.06431 28.4774C8.90596 28.4218 8.76542 28.3248 8.65737 28.1964C8.54931 28.068 8.4777 27.913 8.45001 27.7474L7.90126 24.4699C6.84898 24.1425 5.89827 23.5507 5.13997 22.7511C4.38167 21.9514 3.84113 20.9706 3.57001 19.9025C2.56032 15.9238 2.56032 11.7561 3.57001 7.77745C3.86303 6.6226 4.4705 5.5716 5.32492 4.74123C6.17935 3.91086 7.24726 3.33364 8.41001 3.0737L8.83376 2.97995ZM20.505 4.8087C16.7966 3.97971 12.9509 3.97971 9.24251 4.8087L8.81751 4.9037C7.99341 5.08827 7.23659 5.49765 6.6311 6.08636C6.02561 6.67508 5.59514 7.42011 5.38751 8.2387C4.45465 11.9146 4.45465 15.7653 5.38751 19.4412C5.59524 20.26 6.0259 21.0051 6.63162 21.5938C7.23735 22.1826 7.99443 22.5918 8.81876 22.7762L8.93126 22.8012C9.11325 22.8419 9.27897 22.936 9.40722 23.0713C9.53548 23.2067 9.62044 23.3773 9.65126 23.5612L10.0188 25.7587L12.3588 23.6649C12.4522 23.5811 12.5615 23.5169 12.6803 23.4761C12.799 23.4353 12.9248 23.4187 13.05 23.4275C15.5488 23.6047 18.0602 23.4173 20.505 22.8712L20.9288 22.7762C21.7531 22.5918 22.5102 22.1826 23.1159 21.5938C23.7216 21.0051 24.1523 20.26 24.36 19.4412C25.2925 15.7662 25.2925 11.915 24.36 8.2387C24.1523 7.41995 23.7216 6.67482 23.1159 6.08608C22.5102 5.49735 21.7531 5.08806 20.9288 4.9037L20.505 4.8087Z" fill="#A7A7A7"/>
</svg>
