<svg width="30" height="30" viewBox="0 0 30 30" fill="none" xmlns="http://www.w3.org/2000/svg">
<path d="M6.66663 15.8333V9.16663H4.16663C3.50358 9.16663 2.8677 9.43002 2.39886 9.89886C1.93002 10.3677 1.66663 11.0036 1.66663 11.6666V26.6666C1.66787 26.8214 1.71218 26.9728 1.79461 27.1037C1.87703 27.2347 1.99431 27.3402 2.13329 27.4083C2.26719 27.4692 2.41482 27.4935 2.56119 27.4789C2.70755 27.4643 2.84744 27.4112 2.96663 27.325L7.25829 24.1666H18.4583C18.7741 24.176 19.0885 24.1204 19.382 24.0032C19.6755 23.8861 19.9418 23.71 20.1644 23.4858C20.3871 23.2616 20.5613 22.9941 20.6764 22.6998C20.7914 22.4055 20.8448 22.0907 20.8333 21.775V20.8333H11.6666C10.3405 20.8333 9.06877 20.3065 8.13109 19.3688C7.19341 18.4311 6.66663 17.1594 6.66663 15.8333Z" fill="#A7A7A7"/>
<path d="M25.8333 3.33337H11.6666C11.0036 3.33337 10.3677 3.59677 9.89886 4.06561C9.43002 4.53445 9.16663 5.17033 9.16663 5.83337V15.8334C9.16663 16.4964 9.43002 17.1323 9.89886 17.6011C10.3677 18.07 11.0036 18.3334 11.6666 18.3334H22.9583L26.9416 21.425C27.06 21.5126 27.1995 21.5672 27.3459 21.5833C27.4923 21.5994 27.6403 21.5764 27.775 21.5167C27.9168 21.4492 28.0366 21.3429 28.1206 21.2102C28.2047 21.0775 28.2495 20.9238 28.25 20.7667V5.83337C28.2503 5.18452 27.9984 4.56095 27.5474 4.09443C27.0965 3.62791 26.4818 3.355 25.8333 3.33337Z" fill="#A7A7A7"/>
</svg>
