<svg width="30" height="30" viewBox="0 0 30 30" fill="none" xmlns="http://www.w3.org/2000/svg">
<mask id="mask0_143_291" style="mask-type:luminance" maskUnits="userSpaceOnUse" x="3" y="3" width="24" height="24">
<path d="M11.25 3.75H5C4.66848 3.75 4.35054 3.8817 4.11612 4.11612C3.8817 4.35054 3.75 4.66848 3.75 5V11.25C3.75 11.5815 3.8817 11.8995 4.11612 12.1339C4.35054 12.3683 4.66848 12.5 5 12.5H11.25C11.5815 12.5 11.8995 12.3683 12.1339 12.1339C12.3683 11.8995 12.5 11.5815 12.5 11.25V5C12.5 4.66848 12.3683 4.35054 12.1339 4.11612C11.8995 3.8817 11.5815 3.75 11.25 3.75ZM11.25 17.5H5C4.66848 17.5 4.35054 17.6317 4.11612 17.8661C3.8817 18.1005 3.75 18.4185 3.75 18.75V25C3.75 25.3315 3.8817 25.6495 4.11612 25.8839C4.35054 26.1183 4.66848 26.25 5 26.25H11.25C11.5815 26.25 11.8995 26.1183 12.1339 25.8839C12.3683 25.6495 12.5 25.3315 12.5 25V18.75C12.5 18.4185 12.3683 18.1005 12.1339 17.8661C11.8995 17.6317 11.5815 17.5 11.25 17.5ZM25 3.75H18.75C18.4185 3.75 18.1005 3.8817 17.8661 4.11612C17.6317 4.35054 17.5 4.66848 17.5 5V11.25C17.5 11.5815 17.6317 11.8995 17.8661 12.1339C18.1005 12.3683 18.4185 12.5 18.75 12.5H25C25.3315 12.5 25.6495 12.3683 25.8839 12.1339C26.1183 11.8995 26.25 11.5815 26.25 11.25V5C26.25 4.66848 26.1183 4.35054 25.8839 4.11612C25.6495 3.8817 25.3315 3.75 25 3.75ZM25 17.5H18.75C18.4185 17.5 18.1005 17.6317 17.8661 17.8661C17.6317 18.1005 17.5 18.4185 17.5 18.75V25C17.5 25.3315 17.6317 25.6495 17.8661 25.8839C18.1005 26.1183 18.4185 26.25 18.75 26.25H25C25.3315 26.25 25.6495 26.1183 25.8839 25.8839C26.1183 25.6495 26.25 25.3315 26.25 25V18.75C26.25 18.4185 26.1183 18.1005 25.8839 17.8661C25.6495 17.6317 25.3315 17.5 25 17.5Z" fill="white" stroke="white" stroke-width="1.25" stroke-linejoin="round"/>
</mask>
<g mask="url(#mask0_143_291)">
<path d="M0 0H30V30H0V0Z" fill="#A7A7A7"/>
</g>
</svg>
