<svg width="30" height="30" viewBox="0 0 30 30" fill="none" xmlns="http://www.w3.org/2000/svg">
<path d="M15 27.5C13.2917 27.5 11.6771 27.1717 10.1563 26.515C8.63542 25.8583 7.30708 24.9625 6.17125 23.8275C5.03625 22.6925 4.14042 21.3646 3.48375 19.8438C2.82708 18.3229 2.49917 16.7083 2.5 15C2.5 13.2708 2.82834 11.6508 3.485 10.14C4.14167 8.62917 5.0375 7.30667 6.1725 6.1725C7.3075 5.03667 8.635 4.14083 10.155 3.485C11.675 2.82917 13.29 2.50083 15 2.5C16.7292 2.5 18.3492 2.82833 19.86 3.485C21.3708 4.14167 22.6933 5.0375 23.8275 6.1725C24.9633 7.3075 25.8592 8.63042 26.515 10.1412C27.1708 11.6521 27.4992 13.2717 27.5 15V16.8125C27.5 18.0417 27.0783 19.0888 26.235 19.9538C25.3917 20.8188 24.355 21.2508 23.125 21.25C22.375 21.25 21.6771 21.0833 21.0313 20.75C20.3854 20.4167 19.8542 19.9792 19.4375 19.4375C18.875 20 18.2133 20.4429 17.4525 20.7663C16.6917 21.0896 15.8742 21.2508 15 21.25C13.2708 21.25 11.7967 20.6404 10.5775 19.4212C9.35834 18.2021 8.74917 16.7283 8.75 15C8.75 13.2708 9.35959 11.7967 10.5788 10.5775C11.7979 9.35833 13.2717 8.74917 15 8.75C16.7292 8.75 18.2033 9.35958 19.4225 10.5788C20.6417 11.7979 21.2508 13.2717 21.25 15V16.8125C21.25 17.4167 21.4375 17.8904 21.8125 18.2337C22.1875 18.5771 22.625 18.7492 23.125 18.75C23.625 18.75 24.0625 18.5779 24.4375 18.2337C24.8125 17.8896 25 17.4158 25 16.8125V15C25 12.2708 24.0154 9.92167 22.0462 7.9525C20.0771 5.98333 17.7283 4.99917 15 5C12.2708 5 9.92167 5.98458 7.9525 7.95375C5.98334 9.92292 4.99917 12.2717 5 15C5 17.7292 5.98459 20.0783 7.95375 22.0475C9.92292 24.0167 12.2717 25.0008 15 25H20C20.3542 25 20.6513 25.12 20.8913 25.36C21.1313 25.6 21.2508 25.8967 21.25 26.25C21.25 26.6042 21.13 26.9012 20.89 27.1412C20.65 27.3812 20.3533 27.5008 20 27.5H15ZM15 18.75C16.0417 18.75 16.9271 18.3854 17.6563 17.6562C18.3854 16.9271 18.75 16.0417 18.75 15C18.75 13.9583 18.3854 13.0729 17.6563 12.3438C16.9271 11.6146 16.0417 11.25 15 11.25C13.9583 11.25 13.0729 11.6146 12.3438 12.3438C11.6146 13.0729 11.25 13.9583 11.25 15C11.25 16.0417 11.6146 16.9271 12.3438 17.6562C13.0729 18.3854 13.9583 18.75 15 18.75Z" fill="#A7A7A7"/>
</svg>
