<svg width="30" height="30" viewBox="0 0 30 30" fill="none" xmlns="http://www.w3.org/2000/svg">
<path d="M8.75 21.25C7.02083 21.25 5.54667 20.6404 4.3275 19.4213C3.10833 18.2021 2.49917 16.7283 2.5 15C2.5 13.2708 3.10958 11.7967 4.32875 10.5775C5.54792 9.35834 7.02167 8.74917 8.75 8.75H12.5C12.8542 8.75 13.1513 8.87 13.3913 9.11C13.6313 9.35 13.7508 9.64667 13.75 10C13.75 10.3542 13.63 10.6513 13.39 10.8913C13.15 11.1313 12.8533 11.2508 12.5 11.25H8.75C7.70833 11.25 6.82292 11.6146 6.09375 12.3438C5.36458 13.0729 5 13.9583 5 15C5 16.0417 5.36458 16.9271 6.09375 17.6563C6.82292 18.3854 7.70833 18.75 8.75 18.75H12.5C12.8542 18.75 13.1513 18.87 13.3913 19.11C13.6313 19.35 13.7508 19.6467 13.75 20C13.75 20.3542 13.63 20.6513 13.39 20.8913C13.15 21.1313 12.8533 21.2508 12.5 21.25H8.75ZM11.25 16.25C10.8958 16.25 10.5988 16.13 10.3588 15.89C10.1188 15.65 9.99917 15.3533 10 15C10 14.6458 10.12 14.3488 10.36 14.1088C10.6 13.8688 10.8967 13.7492 11.25 13.75H18.75C19.1042 13.75 19.4013 13.87 19.6413 14.11C19.8813 14.35 20.0008 14.6467 20 15C20 15.3542 19.88 15.6513 19.64 15.8913C19.4 16.1313 19.1033 16.2508 18.75 16.25H11.25ZM17.5 21.25C17.1458 21.25 16.8488 21.13 16.6088 20.89C16.3688 20.65 16.2492 20.3533 16.25 20C16.25 19.6458 16.37 19.3488 16.61 19.1088C16.85 18.8688 17.1467 18.7492 17.5 18.75H21.25C22.2917 18.75 23.1771 18.3854 23.9062 17.6563C24.6354 16.9271 25 16.0417 25 15C25 13.9583 24.6354 13.0729 23.9062 12.3438C23.1771 11.6146 22.2917 11.25 21.25 11.25H17.5C17.1458 11.25 16.8488 11.13 16.6088 10.89C16.3688 10.65 16.2492 10.3533 16.25 10C16.25 9.64584 16.37 9.34875 16.61 9.10875C16.85 8.86875 17.1467 8.74917 17.5 8.75H21.25C22.9792 8.75 24.4533 9.35959 25.6725 10.5788C26.8917 11.7979 27.5008 13.2717 27.5 15C27.5 16.7292 26.8904 18.2033 25.6713 19.4225C24.4521 20.6417 22.9783 21.2508 21.25 21.25H17.5Z" fill="#A7A7A7"/>
</svg>
