<svg width="30" height="30" viewBox="0 0 30 30" fill="none" xmlns="http://www.w3.org/2000/svg">
<path d="M15 2.5C12.6794 2.5 10.4538 3.42187 8.81282 5.06282C7.17187 6.70376 6.25 8.92936 6.25 11.25C6.25 14.225 7.7375 16.8375 10 18.425V21.25C10 21.5815 10.1317 21.8995 10.3661 22.1339C10.6005 22.3683 10.9185 22.5 11.25 22.5H18.75C19.0815 22.5 19.3995 22.3683 19.6339 22.1339C19.8683 21.8995 20 21.5815 20 21.25V18.425C22.2625 16.8375 23.75 14.225 23.75 11.25C23.75 8.92936 22.8281 6.70376 21.1872 5.06282C19.5462 3.42187 17.3206 2.5 15 2.5ZM11.25 26.25C11.25 26.5815 11.3817 26.8995 11.6161 27.1339C11.8505 27.3683 12.1685 27.5 12.5 27.5H17.5C17.8315 27.5 18.1495 27.3683 18.3839 27.1339C18.6183 26.8995 18.75 26.5815 18.75 26.25V25H11.25V26.25Z" fill="#A7A7A7"/>
</svg>
