<svg width="120" height="120" viewBox="0 0 120 120" fill="none" xmlns="http://www.w3.org/2000/svg">
<path d="M28.5 51.7162C29.6563 51.5709 30.83 51.6561 31.9531 51.967C33.0763 52.2778 34.1268 52.8082 35.0438 53.5275C35.6354 54.4389 36.0127 55.4726 36.1471 56.5508C36.2816 57.629 36.1697 58.7237 35.82 59.7525C35.5132 62.2851 34.2884 64.6173 32.3775 66.3075C30.0731 67.7919 27.3491 68.4881 24.615 68.2912H19.365L22.59 51.75L28.5 51.7162ZM7.5 85.0387H16.125L18.1687 74.5387H25.545C28.2625 74.608 30.9744 74.2576 33.585 73.5C35.7291 72.7921 37.6889 71.6162 39.3225 70.0575C42.1478 67.517 44.0519 64.1121 44.7375 60.375C45.2787 58.5149 45.3739 56.5535 45.0156 54.6498C44.6573 52.746 43.8554 50.9535 42.675 49.4175C41.2519 48.0072 39.5381 46.9245 37.6533 46.2451C35.7685 45.5657 33.7581 45.3058 31.7625 45.4837H15.2138L7.5 85.0387ZM51.0637 34.9612H59.625L57.5513 45.4612H65.1675C68.6666 45.0949 72.1821 45.984 75.0863 47.97C76.0472 49.0623 76.704 50.3881 76.991 51.8144C77.278 53.2406 77.1849 54.7173 76.7212 56.0962L73.1437 74.505H64.4812L67.8863 57.0037C68.1232 56.336 68.2077 55.6237 68.1337 54.9191C68.0598 54.2144 67.8292 53.5352 67.4588 52.9312C66.2174 52.0406 64.6831 51.657 63.1687 51.8587H56.3325L51.9263 74.5237H43.3463L51.0637 34.9612ZM95.7712 51.7162C96.9276 51.5709 98.1012 51.6561 99.2244 51.967C100.348 52.2778 101.398 52.8082 102.315 53.5275C102.907 54.4389 103.284 55.4726 103.418 56.5508C103.553 57.629 103.441 58.7237 103.091 59.7525C102.784 62.2851 101.56 64.6173 99.6487 66.3075C97.3402 67.7951 94.6103 68.4914 91.8713 68.2912H86.625L89.8425 51.7312L95.7712 51.7162ZM74.7712 85.0387H83.3963L85.44 74.5387H92.82C95.5425 74.6095 98.2595 74.2591 100.875 73.5C103.019 72.7921 104.979 71.6162 106.613 70.0575C109.431 67.5142 111.328 64.1097 112.009 60.375C112.55 58.5149 112.645 56.5535 112.287 54.6498C111.929 52.746 111.127 50.9535 109.946 49.4175C108.523 48.0097 106.809 46.9294 104.925 46.252C103.041 45.5745 101.032 45.3162 99.0375 45.495H82.4625L74.7712 85.0387Z" fill="#8993BE"/>
</svg>
